<svg xmlns="http://www.w3.org/2000/svg">
  <symbol id="double-check" viewBox="0 0 24 24">
    <path  stroke-linecap="round" stroke-width="1.5" d="m1.5 12.5 4.076 4.076a.6.6 0 0 0 .848 0L9 14M16 7l-4 4"/>
    <path  stroke-linecap="round" stroke-width="1.5" d="m7 12 4.576 4.576a.6.6 0 0 0 .848 0L22 7"/>
  </symbol>
  <symbol id="transactions" viewBox="0 0 24 24">
    <path fill="none" stroke="#000" stroke-width="2" d="M2 7h18m-4-5 5 5-5 5m6 5H4m4-5-5 5 5 5"/>
  </symbol>
  <symbol id="asc"  viewBox="0 0 330 330"><path d="m325.606 229.393-150.004-150a14.997 14.997 0 0 0-21.213.001l-149.996 150c-5.858 5.858-5.858 15.355 0 21.213 5.857 5.857 15.355 5.858 21.213 0l139.39-139.393 139.397 139.393A14.953 14.953 0 0 0 315 255a14.95 14.95 0 0 0 10.607-4.394c5.857-5.858 5.857-15.355-.001-21.213z"/></symbol>
  <symbol id="desc" viewBox="0 0 330 330">
    <path d="M325.607 79.393c-5.857-5.857-15.355-5.858-21.213.001l-139.39 139.393L25.607 79.393c-5.857-5.857-15.355-5.858-21.213.001-5.858 5.858-5.858 15.355 0 21.213l150.004 150a14.999 14.999 0 0 0 21.212-.001l149.996-150c5.859-5.857 5.859-15.355.001-21.213z"/>
  </symbol>
  <symbol id="logout" viewBox="0 0 384.971 384.971">
      <path d="M180.455 360.91H24.061V24.061h156.394c6.641 0 12.03-5.39 12.03-12.03s-5.39-12.03-12.03-12.03H12.03C5.39.001 0 5.39 0 12.031V372.94c0 6.641 5.39 12.03 12.03 12.03h168.424c6.641 0 12.03-5.39 12.03-12.03.001-6.641-5.389-12.03-12.029-12.03z"/>
      <path d="m381.481 184.088-83.009-84.2a11.942 11.942 0 0 0-17.011 0c-4.704 4.74-4.704 12.439 0 17.179l62.558 63.46H96.279c-6.641 0-12.03 5.438-12.03 12.151s5.39 12.151 12.03 12.151h247.74l-62.558 63.46c-4.704 4.752-4.704 12.439 0 17.179a11.931 11.931 0 0 0 17.011 0l82.997-84.2c4.644-4.68 4.692-12.512.012-17.18z"/>
  </symbol>
</svg>
